<?xml version="1.0" encoding="UTF-8" standalone="no"?>
<!-- Created with Inkscape (http://www.inkscape.org/) -->

<svg
   viewBox="0 0 30 30"
   width="30px"
   height="30px"
   version="1.1"
   id="svg1"
   sodipodi:docname="close.svg"
   inkscape:version="1.3 (0e150ed6c4, 2023-07-21)"
   xmlns:inkscape="http://www.inkscape.org/namespaces/inkscape"
   xmlns:sodipodi="http://sodipodi.sourceforge.net/DTD/sodipodi-0.dtd"
   xmlns="http://www.w3.org/2000/svg"
   xmlns:svg="http://www.w3.org/2000/svg">
  <defs
     id="defs1" />
  <sodipodi:namedview
     id="namedview1"
     pagecolor="#ffffff"
     bordercolor="#000000"
     borderopacity="0.25"
     inkscape:showpageshadow="2"
     inkscape:pageopacity="0.0"
     inkscape:pagecheckerboard="0"
     inkscape:deskcolor="#d1d1d1"
     inkscape:zoom="44.823968"
     inkscape:cx="14.534635"
     inkscape:cy="23.29111"
     inkscape:window-width="1920"
     inkscape:window-height="1080"
     inkscape:window-x="0"
     inkscape:window-y="0"
     inkscape:window-maximized="1"
     inkscape:current-layer="svg1" />
  <path
     d="M 4.8852207,4.6961718 C 4.0881862,5.3618108 3.5019248,6.9045704 4.2929688,7.7070312 5.0840128,8.509492 11.585938,15 11.585938,15 c 0,0 -6.5371061,6.504514 -7.2929692,7.292969 -0.7558631,0.788455 -0.3193817,1.949896 0.5015789,2.795195 0.8605567,0.88607 2.0800205,1.56663 2.9124835,0.618867 C 8.5394942,24.759268 15,18.414062 15,18.414062 c 0,0 6.467958,6.524331 7.292969,7.292969 0.825011,0.768638 2.115925,0.314131 2.977993,-0.581025 0.811994,-0.84316 1.434911,-1.836752 0.436069,-2.833037 C 24.708189,21.296684 18.414062,15 18.414062,15 c 0,0 6.685733,-6.6782593 7.292969,-7.2929688 C 26.314267,7.0923217 25.369404,5.5233637 24.924607,5.0260842 24.47981,4.5288048 22.685452,3.8708548 22.292969,4.2929688 21.900486,4.7150828 15,11.585938 15,11.585938 L 7.7070312,4.2929688 C 6.661865,3.4868451 5.8781954,3.8668945 4.8852207,4.6961718 Z"
     id="path1"
     style="fill:#2c2c2c;fill-opacity:1"
     sodipodi:nodetypes="szczszczszczzzccs" />
</svg>
