<?xml version="1.0" encoding="UTF-8" standalone="no"?>
<!-- Created with Inkscape (http://www.inkscape.org/) -->

<svg
   class="feather feather-edit"
   fill="none"
   height="24"
   stroke="currentColor"
   stroke-linecap="round"
   stroke-linejoin="round"
   stroke-width="2"
   viewBox="0 0 24 24"
   width="24"
   version="1.1"
   id="svg2"
   sodipodi:docname="edit.svg"
   inkscape:version="1.3 (0e150ed6c4, 2023-07-21)"
   xmlns:inkscape="http://www.inkscape.org/namespaces/inkscape"
   xmlns:sodipodi="http://sodipodi.sourceforge.net/DTD/sodipodi-0.dtd"
   xmlns="http://www.w3.org/2000/svg"
   xmlns:svg="http://www.w3.org/2000/svg">
  <defs
     id="defs2" />
  <sodipodi:namedview
     id="namedview2"
     pagecolor="#ffffff"
     bordercolor="#000000"
     borderopacity="0.25"
     inkscape:showpageshadow="2"
     inkscape:pageopacity="0.0"
     inkscape:pagecheckerboard="0"
     inkscape:deskcolor="#d1d1d1"
     inkscape:zoom="16.591684"
     inkscape:cx="8.1366063"
     inkscape:cy="11.783011"
     inkscape:window-width="769"
     inkscape:window-height="1041"
     inkscape:window-x="0"
     inkscape:window-y="0"
     inkscape:window-maximized="1"
     inkscape:current-layer="svg2" />
  <path
     d="M 11,4 H 4 C 2.8954305,4 2,4.8954305 2,6 2,6 2.0871369,10.406891 2.0934149,12.746684 2.099693,15.086477 2,20 2,20 1.92083,21.101729 2.8954305,22 4,22 4,22 9.1297327,21.885371 11.464417,21.891471 13.799102,21.89757 18,22 18,22 c 1.10382,0.04068 2,-0.895431 2,-2 0,0 -0.07811,-2.453127 -0.08066,-3.622084 C 19.916791,15.20896 20,13 20,13"
     id="path1"
     style="stroke:#2c2c2c;stroke-width:3.3;stroke-dasharray:none;stroke-opacity:1"
     sodipodi:nodetypes="csszsszsszc" />
  <path
     d="m 18.5,2.5 c 1.616898,-1.58093485 4.747508,1.2867091 3,3 C 11.577159,15.228544 14.236608,15.052902 7.9459215,15.770219 8.7761334,9.7893408 8.8162215,11.968391 18.5,2.5 Z"
     id="path2"
     style="stroke:#2c2c2c;stroke-width:3.3;stroke-dasharray:none;stroke-opacity:1"
     sodipodi:nodetypes="sscs" />
</svg>
