<?xml version="1.0" encoding="UTF-8" standalone="no"?>
<!-- Created with Inkscape (http://www.inkscape.org/) -->

<svg
   width="69.621788mm"
   height="37.069843mm"
   viewBox="0 0 246.69137 131.34984"
   id="svg5364"
   version="1.1"
   inkscape:version="1.3 (0e150ed6c4, 2023-07-21)"
   sodipodi:docname="posts-public.svg"
   xmlns:inkscape="http://www.inkscape.org/namespaces/inkscape"
   xmlns:sodipodi="http://sodipodi.sourceforge.net/DTD/sodipodi-0.dtd"
   xmlns="http://www.w3.org/2000/svg"
   xmlns:svg="http://www.w3.org/2000/svg"
   xmlns:rdf="http://www.w3.org/1999/02/22-rdf-syntax-ns#"
   xmlns:cc="http://creativecommons.org/ns#"
   xmlns:dc="http://purl.org/dc/elements/1.1/">
  <defs
     id="defs5366">
    <linearGradient
       id="swatch1"
       inkscape:swatch="solid">
      <stop
         style="stop-color:#000000;stop-opacity:1;"
         offset="0"
         id="stop1" />
    </linearGradient>
  </defs>
  <sodipodi:namedview
     id="base"
     pagecolor="#ffffff"
     bordercolor="#666666"
     borderopacity="1.0"
     inkscape:pageopacity="0.0"
     inkscape:pageshadow="2"
     inkscape:zoom="10.820585"
     inkscape:cx="227.99136"
     inkscape:cy="154.84375"
     inkscape:document-units="px"
     inkscape:current-layer="layer1"
     showgrid="false"
     fit-margin-top="0"
     fit-margin-left="0"
     fit-margin-right="0"
     fit-margin-bottom="0"
     inkscape:window-width="956"
     inkscape:window-height="1041"
     inkscape:window-x="0"
     inkscape:window-y="0"
     inkscape:window-maximized="1"
     inkscape:showpageshadow="2"
     inkscape:pagecheckerboard="0"
     inkscape:deskcolor="#d1d1d1" />
  <metadata
     id="metadata5369">
    <rdf:RDF>
      <cc:Work
         rdf:about="">
        <dc:format>image/svg+xml</dc:format>
        <dc:type
           rdf:resource="http://purl.org/dc/dcmitype/StillImage" />
        <dc:title />
      </cc:Work>
    </rdf:RDF>
  </metadata>
  <g
     inkscape:label="Layer 1"
     inkscape:groupmode="layer"
     id="layer1"
     transform="translate(0,-921.01239)"
     style="display:inline">
    <path
       style="display:inline;fill:#6cace4;stroke-width:2.16012;paint-order:markers stroke fill"
       d="M 16.068142,3.3323598 C 12.23411,3.5174465 8.2774137,3.0103558 4.5153904,3.8112259 2.6957526,5.7475808 3.9669147,8.9377298 3.4951821,11.363874 3.2068491,52.807617 3.3498345,94.254605 2.7421295,135.69643 c 0.8472981,2.61174 4.3473105,1.27936 6.4762277,1.70809 56.8426118,-0.0413 113.6853928,-0.42972 170.5286128,-0.2769 26.15289,0.0326 52.30577,0.0702 78.45866,0.10478 2.54703,-0.88537 1.36881,-4.34757 1.84265,-6.50709 0.2247,-9.26775 0.41169,-18.62246 0.0642,-27.84106 -1.38086,-2.19598 -4.80577,-0.615 -7.03814,-1.09308 -30.60261,-0.11396 -61.3854,0.25269 -91.87805,-0.25442 -1.86177,0.51079 -2.203,-0.84127 -2.00004,-2.349463 C 158.7161,67.913087 159.06941,36.34644 158.9587,4.9625605 158.01646,2.1523919 154.3072,4.1287287 152.11638,3.7753079 130.97342,4.5276471 109.57029,3.8459105 88.319092,3.8379535 64.235545,3.6673144 40.152446,3.3625424 16.068142,3.3323598 Z"
       id="path2"
       transform="matrix(0.93749998,0,0,0.93749998,0,921.01239)" />
    <path
       style="fill:#6cace4;stroke-width:4.925;paint-order:markers stroke fill"
       d="m 211.12012,2.6209744 c -17.06821,0.013863 -34.1367,0.2452768 -51.19797,0.7295998 -0.91529,-0.042505 -2.00253,0.389078 -2.0909,1.4197937 -0.0385,16.1082701 -0.006,32.2205781 -0.0165,48.3304011 0,16.121199 0,32.242398 0,48.363601 0.0143,1.01147 1.0287,1.6568 1.97614,1.50001 33.01308,0 66.02616,0 99.03924,0 0.97192,-0.0154 1.64536,-0.97293 1.4947,-1.90116 -0.18838,-15.335258 -0.37203,-30.668208 -0.45002,-46.00546 -0.0375,-15.865564 0.37725,-31.726042 0.5452,-47.595459 -0.0549,-1.2631705 0.13349,-2.5517461 -0.12092,-3.7947596 C 259.8957,2.759016 258.83948,2.6948857 257.97664,2.7584571 242.35787,2.6926764 226.7391,2.598038 211.12012,2.6209744 Z"
       id="path1"
       transform="matrix(0.93749998,0,0,0.93749998,0,921.01239)" />
    <path
       id="path18"
       style="display:inline;fill:none;stroke:#2c2c2c;stroke-width:3;stroke-linecap:round;stroke-linejoin:round;stroke-miterlimit:10;stroke-dasharray:none;stroke-opacity:1"
       d="m 129.0125,924.7223 c -4.95424,0.19395 -52.513133,-0.70633 -92.349658,-0.75611 -18.96202,-0.0237 -23.541154,-0.53109 -33.4192024,-0.3859 -0.6986707,6.55715 -0.2096564,9.75978 -0.4322354,23.51229 -0.1762757,10.89156 -0.1365539,27.33805 0.011263,42.06645 0.2252009,22.43897 -1.0749991,42.59077 -0.1937909,60.98257 50.2410938,0.2857 89.2882338,-0.2059 123.4423438,-0.417 40.98855,-0.2533 74.76951,0.3182 117.83477,0.3324 0.93632,-21.6061 -0.43954,-64.97069 -0.0786,-91.13434 0.36043,-26.12715 0.53922,-28.37937 0.39836,-35.53346 -19.54764,0.34392 -54.95561,-1.02591 -115.21325,1.3331 z"
       sodipodi:nodetypes="sscsscscscs"
       transform="translate(0)" />
  </g>
</svg>
