<?xml version="1.0" encoding="UTF-8" standalone="no"?>
<!-- Created with Inkscape (http://www.inkscape.org/) -->

<svg
   width="69.621788mm"
   height="37.069843mm"
   viewBox="0 0 246.69137 131.34984"
   id="svg5364"
   version="1.1"
   inkscape:version="1.3 (0e150ed6c4, 2023-07-21)"
   sodipodi:docname="posts-system.svg"
   xmlns:inkscape="http://www.inkscape.org/namespaces/inkscape"
   xmlns:sodipodi="http://sodipodi.sourceforge.net/DTD/sodipodi-0.dtd"
   xmlns="http://www.w3.org/2000/svg"
   xmlns:svg="http://www.w3.org/2000/svg"
   xmlns:rdf="http://www.w3.org/1999/02/22-rdf-syntax-ns#"
   xmlns:cc="http://creativecommons.org/ns#"
   xmlns:dc="http://purl.org/dc/elements/1.1/">
  <defs
     id="defs5366">
    <linearGradient
       id="swatch1"
       inkscape:swatch="solid">
      <stop
         style="stop-color:#000000;stop-opacity:1;"
         offset="0"
         id="stop1" />
    </linearGradient>
  </defs>
  <sodipodi:namedview
     id="base"
     pagecolor="#ffffff"
     bordercolor="#666666"
     borderopacity="1.0"
     inkscape:pageopacity="0.0"
     inkscape:pageshadow="2"
     inkscape:zoom="4.3255745"
     inkscape:cx="131.54322"
     inkscape:cy="64.153328"
     inkscape:document-units="px"
     inkscape:current-layer="layer1"
     showgrid="false"
     fit-margin-top="0"
     fit-margin-left="0"
     fit-margin-right="0"
     fit-margin-bottom="0"
     inkscape:window-width="956"
     inkscape:window-height="1041"
     inkscape:window-x="0"
     inkscape:window-y="0"
     inkscape:window-maximized="1"
     inkscape:showpageshadow="2"
     inkscape:pagecheckerboard="0"
     inkscape:deskcolor="#d1d1d1" />
  <metadata
     id="metadata5369">
    <rdf:RDF>
      <cc:Work
         rdf:about="">
        <dc:format>image/svg+xml</dc:format>
        <dc:type
           rdf:resource="http://purl.org/dc/dcmitype/StillImage" />
        <dc:title />
      </cc:Work>
    </rdf:RDF>
  </metadata>
  <g
     inkscape:label="Layer 1"
     inkscape:groupmode="layer"
     id="layer1"
     transform="translate(0,-921.01239)"
     style="display:inline">
    <path
       style="display:inline;fill:#dd2d4a;stroke-width:1.13858;paint-order:markers stroke fill;fill-opacity:1"
       d="m 210.60606,2.6974379 c -23.58474,0.01462 -47.19096,0.56732 -70.74332,1.3576372 C 121.31272,4.2603696 102.6991,3.7643327 84.124978,3.6853871 57.764094,3.4329695 31.401364,3.3490847 5.0422312,2.9335879 2.9124036,3.2377784 3.5909993,5.8057531 3.3363523,7.3373562 2.977422,43.686204 3.2285317,80.039075 2.8665563,116.38839 c 0.032249,6.3258 -0.2361523,12.66726 0.095718,18.98428 -0.1893753,1.59892 1.2724622,2.60226 2.74957,2.23657 62.7013637,-0.13419 125.4024457,-0.50049 188.1040857,-0.43589 21.62052,0.002 43.24121,0.22276 64.86132,0.18286 2.11421,-0.51451 1.24587,-3.03171 1.44013,-4.6083 0.0566,-42.797867 -0.48697,-85.599431 0.24815,-128.3942614 -0.3231,-2.2048926 -2.94597,-1.3706404 -4.49857,-1.5340334 -15.0869,-0.063361 -30.1738,-0.1670197 -45.2609,-0.1221773 z"
       id="path1"
       transform="matrix(0.93749998,0,0,0.93749998,0,921.01239)" />
    <path
       id="path18"
       style="display:inline;fill:none;stroke:#2c2c2c;stroke-width:3;stroke-linecap:round;stroke-linejoin:round;stroke-miterlimit:10;stroke-dasharray:none;stroke-opacity:1"
       d="m 129.0125,924.7223 c -4.95424,0.19395 -52.513133,-0.70633 -92.349658,-0.75611 -18.96202,-0.0237 -23.541154,-0.53109 -33.4192024,-0.3859 -0.6986707,6.55715 -0.2096564,9.75978 -0.4322354,23.51229 -0.1762757,10.89156 -0.1365539,27.33805 0.011263,42.06645 0.2252009,22.43897 -1.0749991,42.59077 -0.1937909,60.98257 50.2410938,0.2857 89.2882338,-0.2059 123.4423438,-0.417 40.98855,-0.2533 74.76951,0.3182 117.83477,0.3324 0.93632,-21.6061 -0.43954,-64.97069 -0.0786,-91.13434 0.36043,-26.12715 0.53922,-28.37937 0.39836,-35.53346 -19.54764,0.34392 -54.95561,-1.02591 -115.21325,1.3331 z"
       sodipodi:nodetypes="sscsscscscs"
       transform="translate(0)" />
  </g>
</svg>
