<?xml version="1.0" encoding="UTF-8" standalone="no"?>
<!-- Created with Inkscape (http://www.inkscape.org/) -->

<svg
   width="69.621788mm"
   height="37.069843mm"
   viewBox="0 0 246.69137 131.34984"
   id="svg5364"
   version="1.1"
   inkscape:version="1.3 (0e150ed6c4, 2023-07-21)"
   sodipodi:docname="posts-user.svg"
   xmlns:inkscape="http://www.inkscape.org/namespaces/inkscape"
   xmlns:sodipodi="http://sodipodi.sourceforge.net/DTD/sodipodi-0.dtd"
   xmlns="http://www.w3.org/2000/svg"
   xmlns:svg="http://www.w3.org/2000/svg"
   xmlns:rdf="http://www.w3.org/1999/02/22-rdf-syntax-ns#"
   xmlns:cc="http://creativecommons.org/ns#"
   xmlns:dc="http://purl.org/dc/elements/1.1/">
  <defs
     id="defs5366">
    <linearGradient
       id="swatch1"
       inkscape:swatch="solid">
      <stop
         style="stop-color:#000000;stop-opacity:1;"
         offset="0"
         id="stop1" />
    </linearGradient>
  </defs>
  <sodipodi:namedview
     id="base"
     pagecolor="#ffffff"
     bordercolor="#666666"
     borderopacity="1.0"
     inkscape:pageopacity="0.0"
     inkscape:pageshadow="2"
     inkscape:zoom="6.2511338"
     inkscape:cx="228.27859"
     inkscape:cy="127.57686"
     inkscape:document-units="px"
     inkscape:current-layer="layer1"
     showgrid="false"
     fit-margin-top="0"
     fit-margin-left="0"
     fit-margin-right="0"
     fit-margin-bottom="0"
     inkscape:window-width="956"
     inkscape:window-height="1041"
     inkscape:window-x="0"
     inkscape:window-y="0"
     inkscape:window-maximized="1"
     inkscape:showpageshadow="2"
     inkscape:pagecheckerboard="0"
     inkscape:deskcolor="#d1d1d1" />
  <metadata
     id="metadata5369">
    <rdf:RDF>
      <cc:Work
         rdf:about="">
        <dc:format>image/svg+xml</dc:format>
        <dc:type
           rdf:resource="http://purl.org/dc/dcmitype/StillImage" />
        <dc:title />
      </cc:Work>
    </rdf:RDF>
  </metadata>
  <g
     inkscape:groupmode="layer"
     id="layer2"
     inkscape:label="Layer 2">
    <path
       style="fill:#24c485;fill-opacity:1;stroke-width:2.08504;paint-order:markers stroke fill"
       d="M 4.4261844,132.46497 C 4.251986,130.39466 4.2344126,120.88983 4.3871324,111.34311 4.5398522,101.79639 4.6662277,76.077402 4.6679668,54.189802 4.6697059,32.302202 4.7923136,12.146137 4.9404284,9.3985463 L 5.2097279,4.4029266 19.433338,4.6394229 c 7.822985,0.130073 37.942232,0.4416649 66.931659,0.6924264 39.930613,0.3454039 55.376433,0.3352646 63.715353,-0.041826 6.06426,-0.2742288 32.87076,-0.597336 59.69345,-0.719504 l 48.68615,-0.2217485 -0.0175,64.9278322 c -0.01,35.710307 -0.0573,65.291327 -0.10584,65.735607 -0.0865,0.79145 -1.28835,0.80429 -59.46422,0.63504 -32.65677,-0.095 -89.69547,-0.003 -126.752682,0.20458 l -67.3767491,0.37733 z"
       id="path8"
       transform="scale(0.93749998)" />
    <path
       style="fill:#24c485;fill-opacity:1;stroke-width:2.08504;paint-order:markers stroke fill"
       d="M 4.7247394,3.1462432 C 3.0111344,6.6541123 4.0847717,10.872611 3.6951458,14.674309 3.3821057,54.785787 3.0485185,94.902552 3.3149248,135.01394 c -0.1600832,3.11865 3.0417885,2.88076 5.218852,2.66303 61.4536892,-0.84766 122.9164432,-0.53706 184.3743032,-0.74449 21.7028,-0.10907 43.41368,0.008 65.11114,-0.36403 2.398,-1.17926 1.02465,-4.49871 1.50886,-6.60544 0.40889,-41.845766 0.14086,-83.695271 0.22013,-125.542559 C 258.76471,1.6388048 254.97771,3.4445607 252.734,2.9587419 210.57198,3.0852933 168.41633,3.9222047 126.25572,4.152817 86.818327,4.0878704 47.32488,3.7713538 7.9272098,3.0916697 6.8422637,3.0158918 5.7642905,2.6344176 4.7247394,3.1462432 Z"
       id="path1"
       transform="scale(0.93749998)" />
    <g
       inkscape:label="Layer 1"
       inkscape:groupmode="layer"
       id="layer1"
       transform="translate(0,-921.01239)"
       style="display:inline">
      <path
         id="path18"
         style="fill:none;stroke:#2c2c2c;stroke-width:3;stroke-linecap:round;stroke-linejoin:round;stroke-miterlimit:10;stroke-dasharray:none;stroke-opacity:1"
         d="m 129.0125,924.7223 c -4.95424,0.19395 -52.513133,-0.70633 -92.349658,-0.75611 -18.96202,-0.0237 -23.541154,-0.53109 -33.4192024,-0.3859 -0.6986707,6.55715 -0.2096564,9.75978 -0.4322354,23.51229 -0.1762757,10.89156 -0.1365539,27.33805 0.011263,42.06645 0.2252009,22.43897 -1.0749991,42.59077 -0.1937909,60.98257 50.2410938,0.2857 89.2882338,-0.2059 123.4423438,-0.417 40.98855,-0.2533 74.76951,0.3182 117.83477,0.3324 0.93632,-21.6061 -0.43954,-64.97069 -0.0786,-91.13434 0.36043,-26.12715 0.53922,-28.37937 0.39836,-35.53346 -19.54764,0.34392 -54.95561,-1.02591 -115.21325,1.3331 z"
         sodipodi:nodetypes="sscsscscscs" />
    </g>
  </g>
</svg>
