<?xml version="1.0" encoding="UTF-8" standalone="no"?>
<!-- Created with Inkscape (http://www.inkscape.org/) -->

<svg
   width="69.621788mm"
   height="37.069843mm"
   viewBox="0 0 246.69137 131.34984"
   id="svg5364"
   version="1.1"
   inkscape:version="1.3 (0e150ed6c4, 2023-07-21)"
   sodipodi:docname="textarea.svg"
   xmlns:inkscape="http://www.inkscape.org/namespaces/inkscape"
   xmlns:sodipodi="http://sodipodi.sourceforge.net/DTD/sodipodi-0.dtd"
   xmlns="http://www.w3.org/2000/svg"
   xmlns:svg="http://www.w3.org/2000/svg"
   xmlns:rdf="http://www.w3.org/1999/02/22-rdf-syntax-ns#"
   xmlns:cc="http://creativecommons.org/ns#"
   xmlns:dc="http://purl.org/dc/elements/1.1/">
  <defs
     id="defs5366">
    <linearGradient
       id="swatch1"
       inkscape:swatch="solid">
      <stop
         style="stop-color:#000000;stop-opacity:1;"
         offset="0"
         id="stop1" />
    </linearGradient>
  </defs>
  <sodipodi:namedview
     id="base"
     pagecolor="#ffffff"
     bordercolor="#666666"
     borderopacity="1.0"
     inkscape:pageopacity="0.0"
     inkscape:pageshadow="2"
     inkscape:zoom="5.1656871"
     inkscape:cx="130.08918"
     inkscape:cy="80.047435"
     inkscape:document-units="px"
     inkscape:current-layer="layer1"
     showgrid="false"
     fit-margin-top="0"
     fit-margin-left="0"
     fit-margin-right="0"
     fit-margin-bottom="0"
     inkscape:window-width="956"
     inkscape:window-height="1041"
     inkscape:window-x="0"
     inkscape:window-y="0"
     inkscape:window-maximized="1"
     inkscape:showpageshadow="2"
     inkscape:pagecheckerboard="0"
     inkscape:deskcolor="#d1d1d1" />
  <metadata
     id="metadata5369">
    <rdf:RDF>
      <cc:Work
         rdf:about="">
        <dc:format>image/svg+xml</dc:format>
        <dc:type
           rdf:resource="http://purl.org/dc/dcmitype/StillImage" />
        <dc:title />
      </cc:Work>
    </rdf:RDF>
  </metadata>
  <g
     inkscape:label="Layer 1"
     inkscape:groupmode="layer"
     id="layer1"
     transform="translate(0,-921.01239)"
     style="display:inline">
    <path
       id="path18"
       style="fill:#fcfcfc;stroke:#2c2c2c;stroke-width:3;stroke-linecap:round;stroke-linejoin:round;stroke-miterlimit:10;stroke-dasharray:none;stroke-opacity:1;fill-opacity:1"
       d="m 242.85117,924.26527 c -2.9309,-2.2109 -81.2779,2.07494 -148.224914,0.30976 -48.241847,-1.27199 -86.127121,-3.91539 -89.7796512,1.92075 -3.6525302,5.83614 -0.9513162,37.73223 -1.524388,44.15424 -0.212484,2.38115 0.074456,16.02795 0.1234683,34.36538 0.017336,6.4862 -3.04370748,38.3991 1.287243,42.3088 4.3309505,3.9096 232.8497419,3.8105 236.9242919,2.2602 4.07455,-1.5504 2.50751,-51.44883 2.53004,-77.52103 0.01,-11.34829 1.60776,-45.57743 -1.33609,-47.7981 z"
       sodipodi:nodetypes="sszsszzss" />
    <path
       style="fill:none;stroke-width:0.919769;paint-order:markers stroke fill"
       d="m 138.57226,136.3991 c -33.53161,-0.10512 -56.73405,-0.30047 -74.421895,-0.62659 -25.565039,-0.47135 -39.143737,-0.88909 -49.116582,-1.51105 -4.296045,-0.26792 -8.6414128,-0.71882 -8.9872693,-0.93257 -0.084478,-0.0522 -0.328462,-0.65865 -0.5421878,-1.34764 C 4.0912574,127.42594 3.9312819,117.76801 4.9557267,98.86162 5.2992603,92.521619 5.3204773,90.17278 5.2450394,66.833126 5.2002649,52.980416 5.0624244,38.284788 4.9387272,34.176177 4.7054934,26.429306 4.7952833,17.461519 5.1434794,13.726497 5.3966419,11.01088 5.9780224,8.1015991 6.4539762,7.1686526 7.573811,4.9735951 14.106374,3.9558062 28.666903,3.7078256 c 7.728968,-0.1316322 17.943174,0.076061 42.673532,0.8677111 37.799865,1.2100224 42.745055,1.3032478 69.192755,1.304403 24.92425,0.00109 40.24573,-0.2037619 84.46367,-1.1292926 12.00764,-0.2513331 28.19174,-0.3070641 30.81405,-0.1061102 2.35666,0.1805973 2.28481,0.1142576 2.66453,2.4599846 0.75251,4.6484975 0.92307,18.2345425 0.47002,37.4365615 -0.1816,7.696481 -0.1847,14.964614 -0.0144,33.802667 0.29194,32.29919 -0.002,46.23585 -1.13287,53.69208 -0.30619,2.01902 -0.7378,3.43281 -1.07978,3.53703 -1.18358,0.3607 -34.86652,0.84017 -63.70703,0.90687 -9.0903,0.021 -33.5879,-0.0153 -54.4391,-0.0806 z"
       id="path2"
       transform="matrix(0.93749998,0,0,0.93749998,0,921.01239)" />
    <path
       style="fill:#ffffff;fill-opacity:1;stroke-width:0.919769;paint-order:markers stroke fill"
       d="M 138.57226,136.39911 C 84.348445,136.2287 47.934863,135.70046 24.278159,134.74109 15.942777,134.40305 7.9945167,133.82852 6.6176811,133.46452 5.6850849,133.21796 5.1644387,131.64013 4.636448,127.46033 4.2017028,124.01871 4.3375176,109.76553 4.9069381,99.073562 L 5.3893184,90.015942 5.2000554,63.029835 C 5.0959607,48.187476 4.9695266,32.135878 4.9190908,27.359617 4.7768793,13.892213 5.3598206,7.9870325 6.9819266,6.4631429 8.4127472,5.1189569 14.075972,4.1971288 23.157628,3.8301527 32.195389,3.4649503 41.177255,3.6121272 74.235139,4.6671092 c 11.09325,0.3540208 23.741237,0.7513645 28.106641,0.882986 10.60915,0.3198774 67.55218,0.3184265 83.29276,-0.00212 6.31699,-0.1286423 17.5363,-0.3577022 24.9318,-0.509022 25.2784,-0.5172228 37.37837,-0.6538373 42.20664,-0.476533 2.56788,0.094298 4.8115,0.2271429 4.98582,0.2952107 0.58157,0.2270925 0.9856,3.038383 1.28805,8.9622461 0.15941,3.122666 0.1742,7.889946 0.0542,17.461598 -0.0908,7.241428 -0.16513,29.680049 -0.16513,49.863603 0,37.684612 -0.0401,40.197702 -0.75996,47.622542 -0.31818,3.28171 -0.88037,6.29837 -1.2392,6.64949 -0.83354,0.8156 -47.66891,1.20417 -118.36448,0.982 z"
       id="path3"
       transform="matrix(0.93749998,0,0,0.93749998,0,921.01239)" />
    <path
       style="fill:#ffffff;fill-opacity:1;stroke-width:0.919769;paint-order:markers stroke fill"
       d="M 114.48086,136.29692 C 60.174591,136.03393 13.53973,134.82369 7.003315,133.50772 5.890091,133.2836 5.4839251,132.49774 4.9361546,129.50813 4.2391594,125.70409 4.2794057,111.3792 5.0269087,97.206012 5.3789327,90.531387 5.3881866,88.914231 5.2240789,62.749702 5.1293749,47.650555 4.9977938,32.187236 4.9316764,28.38677 4.8586089,24.186804 4.89258,19.732701 5.0182967,17.029612 5.3352682,10.214272 5.9189392,7.3039198 7.1571817,6.3645137 9.7075061,4.4296821 20.636189,3.4810295 37.724523,3.7111484 c 9.054463,0.1219313 16.259468,0.316638 42.300023,1.1431077 8.114507,0.2575366 17.568982,0.5575651 21.009944,0.6667297 3.44096,0.1091649 17.55965,0.24512 31.37485,0.3021223 26.79959,0.1105769 43.28497,-0.049223 74.04838,-0.7177823 23.49822,-0.5106701 50.91063,-0.5894037 51.3529,-0.1474951 0.85176,0.8510838 1.28931,6.4178153 1.29108,16.4256243 0.005,29.794212 -0.2961,96.645895 -0.45122,100.100715 -0.27754,6.18216 -0.7789,10.8469 -1.39743,13.00201 -0.25688,0.89506 -0.31945,0.96348 -0.9766,1.06835 -1.50988,0.24093 -12.44319,0.50803 -27.96838,0.68327 -13.63032,0.15385 -86.45539,0.19168 -113.82721,0.0591 z"
       id="path4"
       transform="matrix(0.93749998,0,0,0.93749998,0,921.01239)" />
  </g>
  <g
     inkscape:groupmode="layer"
     id="layer2"
     inkscape:label="Layer 2"
     style="display:inline">
    <path
       style="fill:none;fill-opacity:1;stroke-width:4.24219;stroke-dasharray:none;paint-order:fill markers stroke"
       d="m 1.1687628,1.5029052 c 0,0 208.3628672,3.5607519 225.8817972,2.5870284 17.51893,-0.9737236 15.01948,-4.28055674 16.22799,32.0165914 1.20851,36.297149 1.60815,92.723805 0.38052,92.554525 C 242.43142,128.49177 45.628115,128.03325 24.463058,128.4064 3.2980012,128.77954 2.5288846,132.63543 2.3640213,103.73063 2.1991581,74.825839 2.6186762,10.921455 1.1687628,1.5029052 Z"
       id="path1" />
  </g>
</svg>
